PathFileType	4	(X/Y/Z)	/Users/itak/Documents/Research/Walk-IL/dataset/trc/00293_00010.trc
DataRate	CameraRate	NumFrames	NumMarkers	Units	OrigDataRate	OrigDataStartFrame	OrigNumFrames
100.000000	100.000000	4	53	mm	100.000000	178	714
Frame#	Time	RPSI			LPSI			L3			STRN			T10			C7			CLAV			RBAK			LBAK			LSHO			LUPA			LAEL			LAOL			LWTS			LWPS			LFRA			LIFD			LHPS			LHTS			RSHO			RUPA			RAEL			RAOL			RWTS			RWPS			RFRA			RIFD			RHPS			RBHD			LFHD			RFHD			LBHD			LHIP			RHIP			RASI			LASI			LKNE			LTHI			LANK			LTIP			LTOE			LMT1			LMT5			LHEE			RKNE			RTHI			RANK			RTIP			RTOE			RMT1			RMT5			RHEE			RHTS			
		X1	Y1	Z1	X2	Y2	Z2	X3	Y3	Z3	X4	Y4	Z4	X5	Y5	Z5	X6	Y6	Z6	X7	Y7	Z7	X8	Y8	Z8	X9	Y9	Z9	X10	Y10	Z10	X11	Y11	Z11	X12	Y12	Z12	X13	Y13	Z13	X14	Y14	Z14	X15	Y15	Z15	X16	Y16	Z16	X17	Y17	Z17	X18	Y18	Z18	X19	Y19	Z19	X20	Y20	Z20	X21	Y21	Z21	X22	Y22	Z22	X23	Y23	Z23	X24	Y24	Z24	X25	Y25	Z25	X26	Y26	Z26	X27	Y27	Z27	X28	Y28	Z28	X29	Y29	Z29	X30	Y30	Z30	X31	Y31	Z31	X32	Y32	Z32	X33	Y33	Z33	X34	Y34	Z34	X35	Y35	Z35	X36	Y36	Z36	X37	Y37	Z37	X38	Y38	Z38	X39	Y39	Z39	X40	Y40	Z40	X41	Y41	Z41	X42	Y42	Z42	X43	Y43	Z43	X44	Y44	Z44	X45	Y45	Z45	X46	Y46	Z46	X47	Y47	Z47	X48	Y48	Z48	X49	Y49	Z49	X50	Y50	Z50	X51	Y51	Z51	X52	Y52	Z52	X53	Y53	Z53	

179	1.78	-427.7946472167969	970.4451904296875	828.9705810546875	-559.28564453125	974.5625610351562	944.3494262695312	-496.0312805175781	1041.226684570312	868.1152954101562	-669.5891723632812	1218.759643554688	698.0239868164062	-476.798095703125	1152.518310546875	878.2767944335938	-519.3280029296875	1398.034301757812	866.1975708007812	-628.6439819335938	1318.601684570312	747.8102416992188	-425.6098937988281	1262.908325195312	845.6885375976562	-582.6940307617188	1358.293334960938	949.229248046875	-684.41796875	1365.56591796875	923.8626708984375	-707.0219116210938	1253.267578125	1006.75537109375	-697.2587890625	1055.197875976562	1042.310668945312	-612.8118896484375	1046.082153320312	1026.350952148438	-700.5860595703125	813.9772338867188	1014.498901367188	-705.2559814453125	819.8566284179688	1084.661376953125	-699.6260375976562	952.3497924804688	1066.183959960938	-662.6534423828125	639.26318359375	1069.061645507812	-688.0474243164062	735.9449462890625	1105.498291015625	-706.3709106445312	714.2538452148438	1045.927856445312	-454.3804931640625	1379.657592773438	706.4586181640625	-402.5809326171875	1320.8916015625	663.0919799804688	-364.822021484375	1053.980102539062	620.7610473632812	-399.4364013671875	1042.69482421875	708.0838012695312	-556.8809204101562	904.6049194335938	563.4744262695312	-485.6448669433594	866.5736083984375	534.3125	-397.2191467285156	997.5240478515625	586.794189453125	-644.6849975585938	744.2074584960938	529.9934692382812	-554.198486328125	782.083251953125	503.9326171875	-471.1588439941406	1545.2353515625	815.429931640625	-648.0252075195312	1598.716064453125	709.1761474609375	-565.9035034179688	1579.744018554688	670.6257934570312	-602.00537109375	1565.440795898438	876.659912109375	-682.9129028320312	937.56103515625	952.3914184570312	-414.4330749511719	906.6935424804688	690.0958251953125	-545.9534912109375	913.6063842773438	643.2527465820312	-727.8512573242188	942.081787109375	813.6741943359375	-813.6229248046875	503.5565185546875	776.7190551757812	-791.8119506835938	634.287109375	835.4691772460938	-829.323974609375	44.71239852905273	807.8121948242188	-835.4225463867188	270.8595275878906	790.5682373046875	-854.23388671875	52.66521835327148	595.6721801757812	-790.5382690429688	38.46244049072266	642.7825927734375	-887.109619140625	43.6577033996582	699.0113525390625	-756.9893798828125	40.29671859741211	825.5293579101562	-431.9205017089844	444.6278991699219	782.6380004882812	-453.2081298828125	690.5499267578125	688.2258911132812	-230.2186279296875	124.0129241943359	1033.095703125	-401.1642150878906	335.214599609375	840.7186889648438	-394.5493469238281	44.79491424560547	1030.5380859375	-367.7079162597656	59.440673828125	1079.0654296875	-293.2890625	50.91199111938477	987.64453125	-217.3431854248047	164.04833984375	1091.108764648438	-616.6366577148438	813.2562255859375	510.1622924804688	
180	1.79	-435.5903930664062	971.4071044921875	822.794677734375	-567.9938354492188	977.1569213867188	936.8950805664062	-504.3245544433594	1043.447631835938	861.4656982421875	-676.3922119140625	1221.09619140625	689.1419677734375	-485.3705139160156	1154.880981445312	871.7075805664062	-528.421142578125	1400.0966796875	859.2694091796875	-636.04638671875	1321.016235351562	739.538818359375	-434.1452026367188	1265.305541992188	839.6024169921875	-592.4337158203125	1360.239624023438	941.4931030273438	-693.819580078125	1367.559692382812	914.840576171875	-718.3291015625	1255.28271484375	997.0291748046875	-711.2454223632812	1056.73876953125	1031.7412109375	-626.5231323242188	1047.12841796875	1017.5107421875	-717.330810546875	816.0211791992188	1001.587951660156	-722.8007202148438	821.1668701171875	1071.739013671875	-715.0673828125	953.7725830078125	1054.651611328125	-683.0911254882812	640.1488037109375	1054.468383789062	-707.2301025390625	736.7424926757812	1091.779541015625	-725.2179565429688	716.1312866210938	1031.715942382812	-461.4551086425781	1382.431884765625	700.4186401367188	-408.9253540039062	1324.02783203125	657.5397338867188	-369.6559143066406	1056.996948242188	617.3391723632812	-405.1803588867188	1046.54345703125	704.4092407226562	-556.8494873046875	900.9066772460938	560.2000122070312	-483.8856811523438	864.6212158203125	532.748291015625	-400.2842407226562	999.1373291015625	583.9482421875	-638.7062377929688	736.9480590820312	528.111572265625	-549.0059204101562	777.468505859375	502.8005065917969	-479.8244323730469	1547.428955078125	809.9105834960938	-655.5686645507812	1601.067138671875	701.9268798828125	-572.921630859375	1582.5068359375	664.1743774414062	-611.459228515625	1566.961303710938	869.7371215820312	-691.7786254882812	940.6397094726562	944.347412109375	-421.6060485839844	907.2311401367188	684.2081909179688	-552.6788940429688	915.2652587890625	636.5595092773438	-735.7847290039062	944.5399780273438	805.3026733398438	-818.1636352539062	503.3183898925781	773.40234375	-797.8904418945312	634.9083862304688	830.5687866210938	-829.52294921875	44.59137344360352	807.8505249023438	-837.8072509765625	270.5943298339844	789.1323852539062	-854.2447509765625	51.4732551574707	595.426025390625	-790.488525390625	38.25325393676758	642.7970581054688	-887.2822875976562	43.23247528076172	698.9314575195312	-757.2922973632812	40.44561386108398	825.6621704101562	-443.3041381835938	444.21044921875	769.6156005859375	-462.1137390136719	691.2291259765625	679.7128295898438	-238.0941162109375	132.6732635498047	1028.231323242188	-410.775390625	336.6414794921875	828.8431396484375	-396.0802307128906	44.25083541870117	1029.226440429688	-371.8381958007812	62.89910507202148	1075.97607421875	-295.72998046875	53.67677307128906	985.5859375	-228.8816223144531	175.7187652587891	1084.474853515625	-612.7591552734375	806.6195678710938	507.6744079589844	
181	1.8	-443.1757507324219	972.317626953125	817.1093139648438	-576.7234497070312	979.7096557617188	929.6463012695312	-512.6480712890625	1045.675537109375	855.0992431640625	-682.91259765625	1223.215087890625	680.1707153320312	-493.9899291992188	1157.171630859375	865.3253784179688	-537.4398193359375	1402.101806640625	852.2740478515625	-643.2506713867188	1323.257934570312	731.14111328125	-442.6630554199219	1267.590209960938	833.6344604492188	-602.1680297851562	1362.172119140625	933.6505737304688	-703.19677734375	1369.483032226562	905.5906372070312	-729.6704711914062	1257.27392578125	987.0722045898438	-725.2615356445312	1058.317016601562	1021.005798339844	-640.3373413085938	1048.160522460938	1008.478515625	-734.26318359375	818.17529296875	988.2723999023438	-740.4420776367188	822.5458984375	1058.470703125	-730.5680541992188	955.2247314453125	1042.863891601562	-703.9447021484375	641.1221923828125	1039.179931640625	-726.6261596679688	737.62060546875	1077.56396484375	-744.3497314453125	718.1912841796875	1017.035888671875	-468.32958984375	1385.0078125	694.3807373046875	-415.0570983886719	1326.94140625	652.063232421875	-374.3371276855469	1059.882446289062	613.6467895507812	-410.5144653320312	1050.172973632812	700.5574951171875	-556.4564208984375	897.1697387695312	557.1957397460938	-481.9012756347656	862.83984375	531.1718139648438	-403.2044067382812	1000.719421386719	580.9348754882812	-632.2115478515625	729.8186645507812	526.9202880859375	-543.5428466796875	773.0746459960938	501.9134521484375	-488.4044799804688	1549.552612304688	804.2743530273438	-663.02734375	1603.302368164062	694.5696411132812	-579.866943359375	1585.193603515625	657.635009765625	-620.828125	1568.343139648438	862.6844482421875	-700.5426635742188	943.5402221679688	936.35302734375	-428.4171142578125	907.8033447265625	678.7928466796875	-558.8910522460938	916.8400268554688	630.0405883789062	-743.4174194335938	946.7196044921875	796.9210815429688	-822.3409423828125	503.0000915527344	770.3733520507812	-803.5502319335938	635.344970703125	826.0048828125	-829.6600341796875	44.5294189453125	807.8256225585938	-839.9117431640625	270.2665710449219	787.8600463867188	-854.1279296875	50.3200798034668	595.1285400390625	-790.3231811523438	38.00376892089844	642.7622680664062	-887.3565063476562	42.9078483581543	698.79345703125	-757.5401000976562	40.59867477416992	825.7766723632812	-454.7373962402344	443.9195861816406	755.9887084960938	-470.5101623535156	692.0451049804688	671.2469482421875	-246.8478698730469	141.8381805419922	1022.363708496094	-420.8186645507812	338.1697387695312	816.23583984375	-398.1690368652344	43.45475769042969	1027.168090820312	-376.7157592773438	66.90937805175781	1072.0517578125	-298.6595764160156	57.27377700805664	983.0081176757812	-241.2452239990234	187.5222015380859	1076.659912109375	-608.5125122070312	800.0972290039062	505.7444152832031	
182	1.81	-450.53125	973.1385498046875	811.859619140625	-585.4173583984375	982.1557006835938	922.5968627929688	-520.9718627929688	1047.8310546875	848.96875	-689.12353515625	1225.058837890625	671.1386108398438	-502.6273193359375	1159.3603515625	859.12548828125	-546.3635864257812	1404.034790039062	845.2232666015625	-650.2427368164062	1325.275146484375	722.6376953125	-451.1347045898438	1269.740234375	827.7991333007812	-611.88671875	1364.071655273438	925.7129516601562	-712.541015625	1371.302001953125	896.1218872070312	-741.0394287109375	1259.199829101562	976.8809814453125	-739.3038940429688	1059.884887695312	1010.091064453125	-654.2434692382812	1049.139770507812	999.2559814453125	-751.313232421875	820.39013671875	974.5498657226562	-758.1539916992188	823.968994140625	1044.859985351562	-746.1060791015625	956.6616821289062	1030.80810546875	-725.1500854492188	642.178466796875	1023.241943359375	-746.2036743164062	738.5677490234375	1062.88330078125	-763.7159423828125	720.40966796875	1001.9150390625	-474.9977111816406	1387.347534179688	688.3484497070312	-420.9699096679688	1329.588500976562	646.6708374023438	-378.8480224609375	1062.580322265625	609.734375	-415.4537353515625	1053.513916015625	696.5682373046875	-555.704345703125	893.3952026367188	554.4639892578125	-479.716552734375	861.2021484375	529.5653076171875	-405.97021484375	1002.216064453125	577.775146484375	-625.2571411132812	722.8980712890625	526.369140625	-537.8782958984375	768.9026489257812	501.2369689941406	-496.885986328125	1551.579833984375	798.5171508789062	-670.3753051757812	1605.393798828125	687.0753784179688	-586.7151489257812	1587.762939453125	650.993896484375	-630.1027221679688	1569.589477539062	855.4832763671875	-709.1539916992188	946.2255859375	928.4239501953125	-434.8701171875	908.3372802734375	673.813232421875	-564.6031494140625	918.2485961914062	623.6712646484375	-750.7382202148438	948.6151123046875	788.5426635742188	-826.2290649414062	502.6470947265625	767.5065307617188	-808.8641967773438	635.6839599609375	821.6439208984375	-829.7596435546875	44.52259063720703	807.7415771484375	-841.808837890625	269.9004821777344	786.6934204101562	-853.9408569335938	49.19380187988281	594.7816162109375	-790.0869140625	37.72446823120117	642.6846313476562	-887.3671264648438	42.65604019165039	698.617919921875	-757.74462890625	40.7648811340332	825.8648681640625	-466.2808532714844	443.8016357421875	741.8682861328125	-478.384033203125	692.9605712890625	662.8800048828125	-256.4770202636719	151.4260864257812	1015.430603027344	-431.3683166503906	339.7766723632812	802.9674072265625	-400.9283752441406	42.42507171630859	1024.083251953125	-382.4670104980469	71.39413452148438	1067.049682617188	-302.2431945800781	61.74919891357422	979.786376953125	-254.3727569580078	199.3252410888672	1067.7138671875	-603.9389038085938	793.7252807617188	504.3419494628906	
